Coordinates
version=1
nRows=7
nColumns=46
inDegrees=yes

Units are S.I. units (second, meters, Newtons, ...)
Angles are in degrees.

endheader
time	pelvis_tilt	pelvis_list	pelvis_rotation	pelvis_tx	pelvis_ty	pelvis_tz	bb_angle	bb_tx	bb_ty	bb_tz	hip_flexion_r	hip_adduction_r	hip_rotation_r	knee_angle_r	knee_angle_r_beta	ankle_angle_r	subtalar_angle_r	mtp_angle_r	crank_angle_r	hip_flexion_l	hip_adduction_l	hip_rotation_l	knee_angle_l	knee_angle_l_beta	ankle_angle_l	subtalar_angle_l	mtp_angle_l	crank_angle_l	lumbar_extension	lumbar_bending	lumbar_rotation	arm_flex_r	arm_add_r	arm_rot_r	elbow_flex_r	pro_sup_r	wrist_flex_r	wrist_dev_r	arm_flex_l	arm_add_l	arm_rot_l	elbow_flex_l	pro_sup_l	wrist_flex_l	wrist_dev_l
      5.00500000	    -41.00034337	      6.85675254	     -2.89648168	      0.36973815	      1.08343816	     -0.22285759	      0.00000000	      0.50000000	      0.00000000	      0.25000000	     57.72728919	     -8.10022946	     -1.01519807	     28.00295146	      0.48874370	     -9.35611298	      1.53699181	      0.00000000	      0.00000000	     69.15987786	     -2.12974288	     -5.14925152	     87.52520273	      1.52760297	    -23.54765218	    -17.06781316	      0.00000000	      0.00000000	    -55.51235088	     -4.47809076	     -0.37466158	     38.59082674	    -29.37536229	     15.12212924	    122.94836860	     55.08192887	      0.00000000	      0.00000000	     38.80014484	    -23.89637312	     12.36436447	    115.43292682	     54.13064281	      0.00000000	      0.00000000
      5.01000000	    -40.93233254	      7.81301691	     -1.66359421	      0.36985807	      1.08110874	     -0.22316803	      0.00000000	      0.50000000	      0.00000000	      0.25000000	     56.40531328	     -9.76238209	     -1.33834108	     26.09508238	      0.45544511	    -10.79710922	      2.14283445	      0.00000000	      0.00000000	     70.56916725	     -1.13232858	     -5.77273080	     89.83950275	      1.56799512	    -22.37893991	    -16.60793017	      0.00000000	      0.00000000	    -55.13598566	     -4.64598611	     -1.94339826	     37.80020533	    -29.91514352	     15.21863322	    122.75279464	     55.07304569	      0.00000000	      0.00000000	     38.92226473	    -24.05149203	     12.52686374	    115.28805762	     54.11190616	      0.00000000	      0.00000000
      5.01500000	    -40.84088089	      8.69322521	     -0.65373010	      0.36962685	      1.07853816	     -0.22315347	      0.00000000	      0.50000000	      0.00000000	      0.25000000	     55.16651097	    -11.16511505	     -1.55151490	     24.47160175	      0.42711002	    -11.88997952	      2.63681657	      0.00000000	      0.00000000	     72.02671803	     -0.44399659	     -6.45644007	     92.22631696	      1.60965289	    -21.31691603	    -16.52156074	      0.00000000	      0.00000000	    -54.79584134	     -5.01625425	     -3.43859089	     37.30304299	    -30.31582602	     15.24610944	    122.63223264	     55.06055738	      0.00000000	      0.00000000	     39.08406311	    -24.05409053	     12.67636135	    115.16506284	     54.09824006	      0.00000000	      0.00000000
      5.02000000	    -40.79245561	      9.36977708	      0.48615187	      0.36971293	      1.07648560	     -0.22317443	      0.00000000	      0.50000000	      0.00000000	      0.25000000	     53.63029331	    -12.51950647	     -2.09953107	     22.33464707	      0.38981313	    -13.83877546	      3.17715232	      0.00000000	      0.00000000	     73.45955375	      0.18558276	     -6.89358829	     94.34726032	      1.64667033	    -19.77610557	    -15.03016571	      0.00000000	      0.00000000	    -54.41347234	     -5.10006334	     -4.70952607	     36.33565476	    -31.01709754	     15.53755316	    122.06309130	     55.01242326	      0.00000000	      0.00000000	     39.19435887	    -24.48265673	     13.05448498	    114.93285541	     54.08386610	      0.00000000	      0.00000000
      5.02500000	    -40.61427445	      9.66196609	      1.51563072	      0.37021496	      1.07490583	     -0.22321300	      0.00000000	      0.50000000	      0.00000000	      0.25000000	     51.73204866	    -13.49248399	     -2.91691042	     20.09379631	      0.35070290	    -15.63896897	      3.57934904	      0.00000000	      0.00000000	     74.77527844	      0.56502618	     -7.06324875	     96.44724516	      1.68332198	    -18.49352709	    -14.30485830	      0.00000000	      0.00000000	    -54.22753565	     -5.06668282	     -5.72739789	     35.75437849	    -31.49073408	     15.57987280	    121.63451958	     54.94611619	      0.00000000	      0.00000000	     39.35748545	    -24.59542062	     13.44887012	    114.73530659	     54.07569394	      0.00000000	      0.00000000
      5.03000000	    -40.60832925	     10.16458294	      2.56988276	      0.36984376	      1.07282173	     -0.22316110	      0.00000000	      0.50000000	      0.00000000	      0.25000000	     50.22366874	    -14.60000548	     -3.58081324	     18.18397919	      0.31737031	    -17.28651973	      3.86010417	      0.00000000	      0.00000000	     76.34108429	      1.03573923	     -7.42607327	     98.44832025	      1.71824733	    -17.21364559	    -13.48481406	      0.00000000	      0.00000000	    -53.72506199	     -5.23050325	     -6.93161253	     35.17554070	    -31.85822839	     15.58393623	    120.99452712	     54.83690061	      0.00000000	      0.00000000	     39.66044308	    -24.76176874	     13.99142075	    114.33370452	     54.04394646	      0.00000000	      0.00000000
      5.03500000	    -40.67844324	     10.67011604	      3.66083596	      0.36959062	      1.07091583	     -0.22321861	      0.00000000	      0.50000000	      0.00000000	      0.25000000	     48.87820020	    -15.76564470	     -4.42233045	     16.57640620	      0.28931287	    -18.81505827	      4.36195268	      0.00000000	      0.00000000	     77.94489200	      1.55070594	     -7.87888450	    100.23594294	      1.74944723	    -16.38320538	    -13.17976932	      0.00000000	      0.00000000	    -53.24923882	     -5.39474233	     -8.24408259	     34.59270111	    -32.09328194	     15.65117957	    120.56135404	     54.77166137	      0.00000000	      0.00000000	     39.86900564	    -24.70910939	     14.22869363	    114.09589238	     54.01160254	      0.00000000	      0.00000000
